<?xml version="1.0" standalone="no"?>
<!DOCTYPE svg PUBLIC "-//W3C//DTD SVG 20010904//EN"
 "http://www.w3.org/TR/2001/REC-SVG-20010904/DTD/svg10.dtd">
<svg version="1.0" xmlns="http://www.w3.org/2000/svg"
 width="513.000000pt" height="262.000000pt" viewBox="0 0 513.000000 262.000000"
 preserveAspectRatio="xMidYMid meet">

<g transform="translate(0.000000,262.000000) scale(0.100000,-0.100000)"
fill="#000000" stroke="none">
<path d="M1490 2602 c-19 -10 -60 -28 -90 -41 -30 -13 -88 -39 -128 -57 -41
-19 -75 -34 -77 -34 -2 0 -32 -13 -67 -29 -55 -25 -165 -75 -333 -151 -140
-64 -118 -60 -380 -60 -208 0 -246 -2 -259 -16 -14 -14 -16 -67 -16 -439 0
-372 2 -425 16 -439 13 -14 62 -16 380 -16 l364 0 0 35 c0 19 1 38 3 43 1 4
-149 9 -333 12 l-335 5 -3 143 -3 142 411 0 410 0 55 45 56 45 -463 2 -463 3
-3 69 c-2 49 1 72 10 77 7 5 255 9 550 9 567 0 555 1 550 -45 -4 -34 10 -44
48 -36 31 6 36 11 44 50 6 26 18 48 32 58 42 27 157 15 473 -52 128 -27 156
-26 166 4 14 44 -4 53 -160 86 -44 9 -100 22 -125 29 l-45 12 -3 74 c-2 41 -8
80 -14 87 -8 10 -97 13 -417 13 -223 0 -412 4 -419 9 -10 6 -3 13 25 24 21 8
65 27 98 42 33 14 74 32 90 40 17 7 65 29 108 49 43 20 80 36 82 36 2 0 41 17
87 38 222 103 242 107 483 84 66 -7 206 -19 310 -27 512 -40 508 -40 526 -62
11 -12 15 -80 17 -300 l3 -283 40 0 39 0 0 296 0 296 -27 38 c-37 52 -61 61
-178 71 -429 34 -527 39 -800 38 -265 0 -304 -2 -335 -17z m190 -495 l0 -33
-105 4 c-98 4 -107 3 -149 -22 l-45 -26 -573 2 -573 3 -3 39 c-2 21 -1 44 2
52 5 12 119 14 726 14 l720 0 0 -33z"/>
<path d="M353 1593 c-16 -6 -17 -55 -1 -71 7 -7 39 -12 73 -12 49 0 66 4 80
20 15 17 16 24 7 45 -11 23 -16 25 -79 24 -38 0 -74 -3 -80 -6z"/>
<path d="M635 1580 c-17 -18 -17 -21 -1 -45 15 -22 23 -25 79 -25 67 1 97 15
97 47 0 33 -21 43 -90 43 -54 0 -70 -4 -85 -20z"/>
<path d="M933 1592 c-11 -7 -16 -26 -14 -49 2 -25 26 -12 43 22 17 33 17 35 0
35 -9 0 -22 -4 -29 -8z"/>
<path d="M2870 1464 c-89 -31 -126 -98 -118 -209 7 -78 30 -122 82 -148 44
-23 156 -33 226 -20 l45 8 3 46 3 46 -43 -8 c-64 -12 -150 -10 -178 4 -47 24
-49 154 -3 184 28 18 102 22 176 10 l47 -8 0 44 0 44 -57 12 c-75 15 -129 13
-183 -5z"/>
<path d="M3835 1473 c-82 -10 -75 9 -75 -199 l0 -185 48 3 47 3 3 48 3 47 85
0 c108 0 149 16 170 67 21 49 15 144 -10 172 -38 42 -148 60 -271 44z m170
-95 c19 -8 25 -19 25 -43 0 -46 -15 -55 -97 -55 l-73 0 0 49 c0 39 4 51 18 54
34 9 102 7 127 -5z"/>
<path d="M1229 1443 c-1 -14 0 -285 1 -340 0 -10 42 -13 175 -13 l175 0 0 45
0 44 -127 3 c-120 3 -128 4 -128 23 0 18 8 20 98 23 l97 3 0 44 0 44 -97 3
c-90 3 -98 5 -98 23 0 19 7 20 105 22 147 4 150 5 150 53 l0 40 -175 0 c-160
0 -175 -2 -176 -17z"/>
<path d="M1710 1449 c0 -5 27 -43 61 -82 34 -40 63 -77 66 -84 3 -7 -25 -47
-61 -90 -36 -43 -66 -84 -66 -90 0 -9 16 -13 49 -13 47 0 51 2 88 49 21 28 43
52 50 55 7 3 33 -19 59 -49 44 -53 48 -55 95 -55 27 0 49 4 49 9 0 5 -29 45
-65 89 -36 44 -65 84 -65 90 0 6 29 46 65 90 36 44 65 82 65 86 0 3 -24 6 -53
6 -51 0 -53 -1 -97 -56 l-44 -56 -51 56 c-48 54 -52 57 -97 56 -27 0 -48 -5
-48 -11z"/>
<path d="M2346 1388 c-18 -40 -52 -113 -75 -161 -22 -48 -44 -99 -47 -112 -6
-24 -4 -25 38 -25 41 0 46 3 61 35 l17 35 90 0 91 0 20 -35 c18 -30 26 -35 60
-35 31 0 39 4 39 18 0 15 -128 299 -153 340 -5 7 -29 12 -58 12 l-49 0 -34
-72z m114 -84 c11 -26 20 -50 20 -55 0 -10 -83 -13 -92 -3 -8 7 32 104 43 104
4 0 17 -21 29 -46z"/>
<path d="M3242 1418 l3 -43 68 -3 67 -3 0 -139 0 -140 50 0 50 0 0 140 0 139
68 3 67 3 3 43 3 42 -191 0 -191 0 3 -42z"/>
<path d="M4346 1388 c-19 -40 -55 -117 -80 -171 -25 -55 -46 -105 -46 -113 0
-10 13 -14 43 -14 40 0 45 3 60 35 l17 35 94 0 95 0 12 -35 c12 -33 16 -35 57
-35 43 0 44 1 39 28 -3 15 -30 79 -60 142 -30 63 -62 134 -72 158 -19 42 -19
42 -72 42 l-53 0 -34 -72z m113 -87 c11 -27 21 -52 21 -55 0 -3 -22 -6 -50 -6
-27 0 -50 2 -50 5 0 13 45 105 51 105 3 0 16 -22 28 -49z"/>
<path d="M4690 1452 c0 -4 32 -54 71 -112 70 -103 71 -105 72 -175 l2 -70 46
-3 47 -3 4 73 c4 71 5 75 71 171 91 131 90 127 28 127 l-51 0 -45 -70 c-25
-38 -47 -70 -50 -70 -3 0 -25 32 -50 70 l-45 70 -50 0 c-27 0 -50 -3 -50 -8z"/>
<path d="M210 954 c-14 -9 -34 -28 -45 -42 -18 -25 -20 -45 -23 -248 -2 -140
1 -237 8 -263 15 -56 59 -88 141 -100 55 -8 150 -40 207 -71 20 -10 82 -37
170 -74 34 -15 91 -39 125 -55 34 -16 101 -45 150 -66 l87 -37 288 5 c158 3
332 10 387 16 55 6 143 16 195 22 52 6 165 13 250 15 186 6 268 24 310 67 17
17 31 40 32 51 7 85 -18 158 -61 180 -14 8 -59 22 -98 31 l-73 18 0 173 0 174
-45 0 -45 0 -2 -162 -3 -163 -60 1 c-62 0 -221 18 -310 34 -27 5 -81 13 -120
17 l-70 8 -5 50 c-7 66 -18 82 -95 152 -59 54 -73 61 -132 72 -125 23 -225 75
-311 162 l-43 44 -392 2 c-343 3 -395 1 -417 -13z m890 -118 c154 -79 312
-180 371 -236 46 -43 51 -99 13 -129 -29 -22 -91 -28 -122 -11 -9 5 -71 30
-137 55 -66 25 -129 50 -140 55 -128 55 -176 70 -196 60 -15 -8 -19 -19 -17
-41 3 -30 9 -33 253 -131 276 -111 305 -117 390 -77 34 16 54 19 83 14 20 -4
73 -11 117 -16 44 -5 136 -15 205 -24 69 -8 163 -20 210 -25 47 -5 108 -15
135 -21 107 -23 123 -31 136 -61 28 -68 -27 -98 -178 -98 -49 0 -161 -7 -249
-15 -87 -8 -215 -19 -284 -25 -69 -5 -199 -17 -290 -26 -195 -18 -264 -19
-321 -4 -34 9 -455 188 -624 265 -57 26 -120 45 -153 45 -19 0 -40 8 -52 20
-19 19 -20 33 -20 226 0 125 4 213 11 225 10 19 20 20 397 17 l387 -3 75 -39z"/>
</g>
</svg>
